<svg width="24" height="21" viewBox="0 0 24 21" fill="none" xmlns="http://www.w3.org/2000/svg">
<path d="M0.00495621 14.5894C0.00495621 17.6541 2.48928 20.1385 5.55398 20.1385C8.61874 20.1385 11.1031 17.6541 11.1031 14.5894C11.1031 11.5246 8.61874 9.04037 5.55398 9.04037C4.92414 9.04037 4.32123 9.15017 3.75681 9.34366C5.00558 2.18164 10.5906 -2.43706 5.41331 1.36422C-0.327517 5.57941 -0.00119219 14.4198 0.00523152 14.5818C0.00523152 14.5843 0.00495621 14.5866 0.00495621 14.5894Z" fill="#F2994A"/>
<path d="M12.2121 14.5894C12.2121 17.6542 14.6964 20.1385 17.7612 20.1385C20.8259 20.1385 23.3103 17.6542 23.3103 14.5894C23.3103 11.5247 20.8259 9.0404 17.7611 9.0404C17.1313 9.0404 16.5284 9.1502 15.964 9.34369C17.2127 2.18167 22.7977 -2.43702 17.6205 1.36425C11.8796 5.57944 12.2059 14.4198 12.2124 14.5819C12.2124 14.5844 12.2121 14.5866 12.2121 14.5894Z" fill="#F2994A"/>
</svg>
