<svg width="15" height="12" viewBox="0 0 15 12" fill="none" xmlns="http://www.w3.org/2000/svg">
<path d="M0.314085 7.10668C1.11076 9.7659 3.07613 11.6963 4.98655 11.6963C5.14 11.6963 5.29329 11.6838 5.44264 11.6592C5.52733 11.6453 5.6014 11.5988 5.64724 11.5314C5.69292 11.4635 5.70582 11.3811 5.6826 11.304L5.28935 9.99114C5.2514 9.86436 5.12042 9.77865 4.98427 9.78446L4.95301 9.78503C4.24451 9.78503 2.9497 8.79398 2.28962 6.59133C2.26351 6.50393 2.23877 6.41454 2.21494 6.32133C2.95592 6.66358 3.83987 6.74276 4.64035 6.53467C6.44619 6.06309 7.50408 4.3085 6.99927 2.62333C6.59008 1.25788 5.24427 0.303946 3.72649 0.303946C3.41732 0.303946 3.10861 0.343752 2.80885 0.42209C1.618 0.732747 0.72267 1.65551 0.287676 3.01983C-0.104971 4.2507 -0.0951066 5.74024 0.314085 7.10668Z" fill="#F2994A"/>
<path d="M12.8618 11.6957C13.0149 11.6957 13.1684 11.6835 13.3176 11.6588C13.4021 11.6452 13.4764 11.5985 13.522 11.5311C13.5677 11.4632 13.5806 11.3808 13.5576 11.3037L13.1641 9.99081C13.1262 9.86403 12.9976 9.77833 12.8591 9.78413L12.8281 9.7847C12.1196 9.7847 10.8247 8.79366 10.1646 6.591C10.1383 6.50303 10.1136 6.41365 10.0899 6.321C10.8312 6.66325 11.7148 6.74244 12.5153 6.53434C14.3208 6.06276 15.379 4.30817 14.8739 2.623C14.4647 1.25755 13.1189 0.303617 11.6011 0.303617C11.292 0.303617 10.9833 0.343423 10.6833 0.42176C9.49265 0.732418 8.59732 1.65518 8.16217 3.0195C7.76968 4.25037 7.77939 5.74006 8.18873 7.10664C8.98587 9.76558 10.9509 11.6957 12.8618 11.6957Z" fill="#F2994A"/>
</svg>
