<svg width="27" height="19" viewBox="0 0 27 19" fill="none" xmlns="http://www.w3.org/2000/svg">
<path d="M0.0195312 18.8125H11.6914C11.5039 17.3125 11.3516 16.1758 11.2344 15.4023C11.1406 14.6055 11.0938 13.7734 11.0938 12.9062C11.0938 11.8047 11.1289 10.7734 11.1992 9.8125C11.293 8.85156 11.4453 7.89062 11.6562 6.92969C11.8672 5.96875 12.1367 4.9375 12.4648 3.83594C12.8164 2.73438 13.25 1.48047 13.7656 0.0742188H7.29688C6.71094 1.03516 6.20703 1.89063 5.78516 2.64062C5.38672 3.39062 5.03516 4.08203 4.73047 4.71484C4.42578 5.32422 4.12109 5.94531 3.81641 6.57812C3.53516 7.1875 3.25391 7.87891 2.97266 8.65234C2.64453 9.47266 2.33984 10.2461 2.05859 10.9727C1.80078 11.6758 1.56641 12.4023 1.35547 13.1523C1.14453 13.9023 0.933594 14.7344 0.722656 15.6484C0.535156 16.5625 0.300781 17.6172 0.0195312 18.8125ZM12.9219 18.8125H24.5586C24.3242 17.3125 24.1719 16.1758 24.1016 15.4023C24.0312 14.6055 23.9961 13.7734 23.9961 12.9062C23.9961 11.8047 24.0312 10.7734 24.1016 9.8125C24.1719 8.85156 24.3125 7.89062 24.5234 6.92969C24.7578 5.96875 25.0391 4.9375 25.3672 3.83594C25.6953 2.73438 26.1289 1.48047 26.668 0.0742188H20.1641C19.6016 1.08203 19.1094 1.94922 18.6875 2.67578C18.2891 3.40234 17.9258 4.09375 17.5977 4.75C17.293 5.38281 17 6.00391 16.7188 6.61328C16.4375 7.19922 16.1562 7.87891 15.875 8.65234C15.5234 9.47266 15.2305 10.2344 14.9961 10.9375C14.7617 11.6172 14.5156 12.332 14.2578 13.082C14.0234 13.832 13.8008 14.6641 13.5898 15.5781C13.3789 16.4922 13.1562 17.5703 12.9219 18.8125Z" fill="#F2994A"/>
</svg>
